<?xml version="1.0" encoding="UTF-8" standalone="no"?>
<!DOCTYPE svg PUBLIC "-//W3C//DTD SVG 1.1//EN"
 "http://www.w3.org/Graphics/SVG/1.1/DTD/svg11.dtd">
<!-- Generated by graphviz version 2.43.0 (0)
 -->
<!-- Title: modules Pages: 1 -->
<svg width="152pt" height="218pt"
 viewBox="0.00 0.00 152.00 218.00" xmlns="http://www.w3.org/2000/svg" xmlns:xlink="http://www.w3.org/1999/xlink">
<g id="graph0" class="graph" transform="scale(1 1) rotate(0) translate(4 214)">
<title>modules</title>
<polygon fill="white" stroke="transparent" points="-4,4 -4,-214 148,-214 148,4 -4,4"/>
<!-- scripts.code_graph -->
<g id="node1" class="node">
<title>scripts.code_graph</title>
<path fill="#f6f8fa" stroke="#d0d7de" d="M109.5,-36C109.5,-36 34.5,-36 34.5,-36 28.5,-36 22.5,-30 22.5,-24 22.5,-24 22.5,-12 22.5,-12 22.5,-6 28.5,0 34.5,0 34.5,0 109.5,0 109.5,0 115.5,0 121.5,-6 121.5,-12 121.5,-12 121.5,-24 121.5,-24 121.5,-30 115.5,-36 109.5,-36"/>
<text text-anchor="middle" x="72" y="-15.5" font-family="Inter,Helvetica,Arial" font-size="10.00">scripts.code_graph</text>
</g>
<!-- scripts.dependency_manifest -->
<g id="node2" class="node">
<title>scripts.dependency_manifest</title>
<path fill="#f6f8fa" stroke="#d0d7de" d="M132,-94C132,-94 12,-94 12,-94 6,-94 0,-88 0,-82 0,-82 0,-70 0,-70 0,-64 6,-58 12,-58 12,-58 132,-58 132,-58 138,-58 144,-64 144,-70 144,-70 144,-82 144,-82 144,-88 138,-94 132,-94"/>
<text text-anchor="middle" x="72" y="-73.5" font-family="Inter,Helvetica,Arial" font-size="10.00">scripts.dependency_manifest</text>
</g>
<!-- scripts.add_license_headers -->
<g id="node3" class="node">
<title>scripts.add_license_headers</title>
<path fill="#f6f8fa" stroke="#d0d7de" d="M130,-152C130,-152 14,-152 14,-152 8,-152 2,-146 2,-140 2,-140 2,-128 2,-128 2,-122 8,-116 14,-116 14,-116 130,-116 130,-116 136,-116 142,-122 142,-128 142,-128 142,-140 142,-140 142,-146 136,-152 130,-152"/>
<text text-anchor="middle" x="72" y="-131.5" font-family="Inter,Helvetica,Arial" font-size="10.00">scripts.add_license_headers</text>
</g>
<!-- scripts.generate_changelog -->
<g id="node4" class="node">
<title>scripts.generate_changelog</title>
<path fill="#f6f8fa" stroke="#d0d7de" d="M128,-210C128,-210 16,-210 16,-210 10,-210 4,-204 4,-198 4,-198 4,-186 4,-186 4,-180 10,-174 16,-174 16,-174 128,-174 128,-174 134,-174 140,-180 140,-186 140,-186 140,-198 140,-198 140,-204 134,-210 128,-210"/>
<text text-anchor="middle" x="72" y="-189.5" font-family="Inter,Helvetica,Arial" font-size="10.00">scripts.generate_changelog</text>
</g>
</g>
</svg>
